HIERARCHY
ROOT Hips
{
  OFFSET -43.3411 73.6987 0
  CHANNELS 6 Xposition Yposition Zposition Zrotation Xrotation Yrotation
  JOINT Bip01_Pelvis
  {
    OFFSET 0 0 0
    CHANNELS 6 Xposition Yposition Zposition Zrotation Xrotation Yrotation
    JOINT BN_Tail_01
    {
      OFFSET -18.6385 -9.591 -2.032e-005
      CHANNELS 6 Xposition Yposition Zposition Zrotation Xrotation Yrotation
      JOINT BN_Tail_02
      {
        OFFSET 20.9743 0 0
        CHANNELS 6 Xposition Yposition Zposition Zrotation Xrotation Yrotation
        JOINT BN_Tail_03
        {
          OFFSET 20.3015 0 0
          CHANNELS 6 Xposition Yposition Zposition Zrotation Xrotation Yrotation
          JOINT BN_Tail_04
          {
            OFFSET 21.6394 -9.91821e-005 0
            CHANNELS 6 Xposition Yposition Zposition Zrotation Xrotation Yrotation
            End Site
            {
              OFFSET 0 0 0
            }
          }
        }
      }
    }
    JOINT Bip01_Spine
    {
      OFFSET 22.1878 -0.659386 3.048e-005
      CHANNELS 6 Xposition Yposition Zposition Zrotation Xrotation Yrotation
      JOINT Bip01_R_Thigh
      {
        OFFSET -22.1873 0.677109 -17.1024
        CHANNELS 6 Xposition Yposition Zposition Zrotation Xrotation Yrotation
        JOINT Bip01_R_Calf
        {
          OFFSET 34.2647 0 0
          CHANNELS 6 Xposition Yposition Zposition Zrotation Xrotation Yrotation
          JOINT Bip01_R_HorseLink
          {
            OFFSET 20.4429 0 0
            CHANNELS 6 Xposition Yposition Zposition Zrotation Xrotation Yrotation
            JOINT Bip01_R_Foot
            {
              OFFSET 16.5673 0 0
              CHANNELS 6 Xposition Yposition Zposition Zrotation Xrotation Yrotation
              JOINT Bip01_R_Toe0
              {
                OFFSET 9.18784 6.94841 0
                CHANNELS 6 Xposition Yposition Zposition Zrotation Xrotation Yrotation
                JOINT Bip01_R_Toe0Nub
                {
                  OFFSET 1.01907 0 0
                  CHANNELS 6 Xposition Yposition Zposition Zrotation Xrotation Yrotation
                  End Site
                  {
                    OFFSET 0 0 0
                  }
                }
              }
            }
          }
        }
      }
      JOINT Bip01_L_Thigh
      {
        OFFSET -22.1873 0.67701 17.1024
        CHANNELS 6 Xposition Yposition Zposition Zrotation Xrotation Yrotation
        JOINT Bip01_L_Calf
        {
          OFFSET 34.2647 0 0
          CHANNELS 6 Xposition Yposition Zposition Zrotation Xrotation Yrotation
          JOINT Bip01_L_HorseLink
          {
            OFFSET 20.4429 0 0
            CHANNELS 6 Xposition Yposition Zposition Zrotation Xrotation Yrotation
            JOINT Bip01_L_Foot
            {
              OFFSET 16.5673 0 0
              CHANNELS 6 Xposition Yposition Zposition Zrotation Xrotation Yrotation
              JOINT Bip01_L_Toe0
              {
                OFFSET 9.18784 6.9484 1.14441e-005
                CHANNELS 6 Xposition Yposition Zposition Zrotation Xrotation Yrotation
                JOINT Bip01_L_Toe0Nub
                {
                  OFFSET 1.01907 0 0
                  CHANNELS 6 Xposition Yposition Zposition Zrotation Xrotation Yrotation
                  End Site
                  {
                    OFFSET 0 0 0
                  }
                }
              }
            }
          }
        }
      }
      JOINT Bip01_Spine1
      {
        OFFSET 39.3372 -0.0249863 0
        CHANNELS 6 Xposition Yposition Zposition Zrotation Xrotation Yrotation
        JOINT Bip01_Neck
        {
          OFFSET 34.2837 -15.5934 -4.318e-005
          CHANNELS 6 Xposition Yposition Zposition Zrotation Xrotation Yrotation
          JOINT Bip01_R_Clavicle
          {
            OFFSET -17.9452 -11.3131 -6.19287
            CHANNELS 6 Xposition Yposition Zposition Zrotation Xrotation Yrotation
            JOINT Bip01_R_UpperArm
            {
              OFFSET 17.4439 1.52588e-005 -2.28882e-005
              CHANNELS 6 Xposition Yposition Zposition Zrotation Xrotation Yrotation
              JOINT Bip01_R_Forearm
              {
                OFFSET 30.6251 1.14441e-005 0
                CHANNELS 6 Xposition Yposition Zposition Zrotation Xrotation Yrotation
                JOINT Bip01_R_Hand
                {
                  OFFSET 31.2039 0 0
                  CHANNELS 6 Xposition Yposition Zposition Zrotation Xrotation Yrotation
                  JOINT Bip01_R_Finger0
                  {
                    OFFSET 22.1039 0.255862 -0.37902
                    CHANNELS 6 Xposition Yposition Zposition Zrotation Xrotation Yrotation
                    JOINT Bip01_R_Finger0Nub
                    {
                      OFFSET 12.0552 0 0
                      CHANNELS 6 Xposition Yposition Zposition Zrotation Xrotation Yrotation
                      End Site
                      {
                        OFFSET 0 0 0
                      }
                    }
                  }
                }
              }
            }
          }
          JOINT Bip01_L_Clavicle
          {
            OFFSET -17.9452 -11.3132 6.19281
            CHANNELS 6 Xposition Yposition Zposition Zrotation Xrotation Yrotation
            JOINT Bip01_L_UpperArm
            {
              OFFSET 17.444 0 1.14441e-005
              CHANNELS 6 Xposition Yposition Zposition Zrotation Xrotation Yrotation
              JOINT Bip01_L_Forearm
              {
                OFFSET 30.6251 0 0
                CHANNELS 6 Xposition Yposition Zposition Zrotation Xrotation Yrotation
                JOINT Bip01_L_Hand
                {
                  OFFSET 31.204 0 0
                  CHANNELS 6 Xposition Yposition Zposition Zrotation Xrotation Yrotation
                  JOINT Bip01_L_Finger0
                  {
                    OFFSET 22.1039 0.255856 0.379024
                    CHANNELS 6 Xposition Yposition Zposition Zrotation Xrotation Yrotation
                    JOINT Bip01_L_Finger0Nub
                    {
                      OFFSET 12.0552 0 0
                      CHANNELS 6 Xposition Yposition Zposition Zrotation Xrotation Yrotation
                      End Site
                      {
                        OFFSET 0 0 0
                      }
                    }
                  }
                }
              }
            }
          }
          JOINT Bip01_Neck1
          {
            OFFSET 14.9359 -0.0106278 0
            CHANNELS 6 Xposition Yposition Zposition Zrotation Xrotation Yrotation
            JOINT Bip01_Head
            {
              OFFSET 14.3578 0.505501 0
              CHANNELS 6 Xposition Yposition Zposition Zrotation Xrotation Yrotation
              JOINT BN_Ear_L_01
              {
                OFFSET 3.76994 -2.35629 12.3444
                CHANNELS 6 Xposition Yposition Zposition Zrotation Xrotation Yrotation
                End Site
                {
                  OFFSET 0 0 0
                }
              }
              JOINT BN_Ear_R_01
              {
                OFFSET 3.76995 -2.35622 -12.3442
                CHANNELS 6 Xposition Yposition Zposition Zrotation Xrotation Yrotation
                End Site
                {
                  OFFSET 0 0 0
                }
              }
              JOINT BN_Mouth_01
              {
                OFFSET 11.8395 10.8645 1.27e-005
                CHANNELS 6 Xposition Yposition Zposition Zrotation Xrotation Yrotation
                JOINT BN_Tongue_01
                {
                  OFFSET 9.73752 3.21674 1.016e-005
                  CHANNELS 6 Xposition Yposition Zposition Zrotation Xrotation Yrotation
                  JOINT BN_Tongue_02
                  {
                    OFFSET 9.04304 0.053505 0
                    CHANNELS 6 Xposition Yposition Zposition Zrotation Xrotation Yrotation
                    End Site
                    {
                      OFFSET 0 0 0
                    }
                  }
                }
                JOINT BN_Beard_01
                {
                  OFFSET 6.93466 -0.751793 0
                  CHANNELS 6 Xposition Yposition Zposition Zrotation Xrotation Yrotation
                  JOINT BN_Beard_02
                  {
                    OFFSET 13.0965 1.52588e-005 0
                    CHANNELS 6 Xposition Yposition Zposition Zrotation Xrotation Yrotation
                    End Site
                    {
                      OFFSET 0 0 0
                    }
                  }
                }
              }
              JOINT Bip01_HeadNub
              {
                OFFSET 25.6158 0 0
                CHANNELS 6 Xposition Yposition Zposition Zrotation Xrotation Yrotation
                End Site
                {
                  OFFSET 0 0 0
                }
              }
            }
          }
        }
      }
    }
  }
}
MOTION
Frames:	4
Frame Time:	0.0333333
-43.3411 73.3613 -0.761718 120.599 -86.702 -146.56 0 0 0 -87.967 5.92169 -84.787 -18.6385 -9.591 5.86436e-007 -48.7179 1.87699 179.849 20.9743 2.84217e-013 -0.000671029 18.5672 3.73148 -17.72 20.3015 -1.42109e-014 -9.53674e-007 15.6793 -2.29231 -18.2101 21.6394 -7.6294e-006 -9.53672e-007 6.3681 -10.8443 -38.0521 22.0444 1.63463 2.03371 7.90519 -1.34375 6.30808 -19.8275 1.86257 -21.4065 -94.8815 0.45595 -179.363 34.2647 -7.62939e-006 1.90735e-006 -45.457 2.46843e-007 1.45272e-005 20.4429 -7.62939e-006 5.72205e-006 67.3303 -1.47479e-007 2.19148e-007 16.5673 -7.10543e-014 1.90735e-006 -19.011 7.3789 -0.517078 9.18784 6.94841 -3.82569e-006 89.5774 1.50133 -0.0661845 1.01907 2.38418e-007 3.8147e-006 7.02976e-008 3.53293e-008 1.04913e-006 -23.5859 1.05877 12.5818 -110.213 20.8436 -172.491 34.2647 7.62939e-006 3.55271e-015 -53.8552 -3.40967e-006 1.38739e-005 20.4429 4.26326e-014 -3.8147e-006 61.2457 5.40856e-006 -9.91041e-006 16.5673 1.90735e-006 3.8147e-006 -18.2983 -2.23619 0.365654 9.18784 6.9484 3.80435e-006 89.5168 -1.72894 0.074317 1.01907 5.68434e-014 3.55271e-015 179.96 -1.00505e-005 1.79438e-005 39.3331 -0.0246582 0.000216067 -8.20335 -0.12741 -13.571 34.2801 -15.593 -3.33928e-005 -13.0856 -0.918304 4.62541 -13.5948 -15.6909 -7.56835 -163.228 -38.021 121.724 17.4439 0 -3.8147e-006 35.9156 42.8688 -100.243 30.6251 -7.15256e-007 -3.81469e-006 -34.8085 2.91126e-006 1.40683e-005 31.2039 -7.81598e-014 5.72204e-006 -125.672 79.6675 126.737 22.1039 0.255849 -0.379035 -7.17436 15.0353 -33.2929 12.0552 -1.90735e-006 -3.55271e-015 179.96 4.59186e-010 -9.42339e-006 -14.5923 -15.89 4.77634 -170.66 38.319 -109.72 17.4439 -1.42109e-014 3.8147e-006 55.1793 -46.2345 102.862 30.6251 1.90735e-006 1.90735e-006 -43.5035 -1.29745e-005 -1.22387e-005 31.2039 3.8147e-006 -3.81469e-006 110.422 -86.3057 101.747 22.1039 0.25586 0.379039 -9.82717 -4.04806 32.1763 12.0552 -1.90735e-006 -7.10541e-015 -3.89916e-008 9.64447e-006 -7.5638e-007 14.9375 -0.010376 -0.000137329 9.53948 0.537376 3.50207 14.3578 0.505471 -4.76621e-007 10.9984 1.70403 -1.53446 3.7699 -2.35626 12.3444 -170.61 23.5021 -87.7851 3.76993 -2.35621 -12.3442 2.66276 23.654 122.901 11.8396 10.8645 4.63276e-007 -177.002 -3.76322 178.789 9.73753 3.21677 -9.57904e-007 -2.85749 -1.7764e-005 9.27175e-006 5.17482 0.535263 -0.159799 -9.7303 3.87671e-007 1.5149e-007 6.93462 -0.751786 9.88342e-010 -85.1352 -4.05297 -0.706979 13.0965 7.6294e-006 -1.19209e-007 -8.25484 0.57475 -12.3317 25.6158 7.6294e-006 -4.76837e-007 2.19369e-007 -1.04682e-007 1.01989e-009 
-43.3411 73.3613 -0.761718 120.599 -86.702 -146.56 0 0 0 -87.9669 5.92167 -84.787 -18.6385 -9.591 5.86436e-007 -48.4743 2.05478 -179.154 20.9743 -8.52651e-014 -0.000671029 18.9921 3.55912 -17.5465 20.3015 2.84217e-014 -9.53674e-007 15.8962 -2.55165 -18.5511 21.6394 -7.6294e-006 -9.53672e-007 6.3594 -10.7911 -39.8735 22.0444 1.63461 2.03434 7.84767 -1.31848 6.31245 -19.8274 1.83181 -21.41 -94.8257 0.458486 -179.395 34.2647 -7.62939e-006 1.90735e-006 -45.4532 7.37952e-006 7.50752e-006 20.4429 -7.62939e-006 5.72205e-006 67.3345 -1.47316e-007 2.19365e-007 16.5673 -3.55271e-014 1.90735e-006 -19.011 7.3789 -0.517078 9.18784 6.94841 -3.82572e-006 89.5774 1.50133 -0.0661845 1.01907 2.38418e-007 3.8147e-006 7.02976e-008 3.53293e-008 1.04913e-006 -23.5867 1.044 12.5801 -110.143 20.8539 -172.515 34.2647 7.62939e-006 0 -53.8493 4.68228e-006 7.96425e-006 20.4429 4.9738e-014 -3.8147e-006 61.2457 1.37408e-005 -5.33644e-006 16.5673 1.90735e-006 3.8147e-006 -18.3012 -2.23621 0.365538 9.18784 6.9484 3.80427e-006 89.5168 -1.72894 0.074317 1.01907 1.28786e-014 -7.10543e-015 179.96 -1.00505e-005 1.79438e-005 39.3331 -0.0246582 0.000216067 -8.09212 -0.111794 -13.5794 34.2801 -15.593 -3.33929e-005 -13.1604 -0.899718 4.5903 -13.5796 -15.7113 -7.55396 -163.184 -38.0048 121.67 17.4439 0 -3.8147e-006 35.9651 42.9001 -100.239 30.6251 -7.15256e-007 -3.81469e-006 -34.7682 2.92163e-006 1.40655e-005 31.2039 -4.61853e-014 5.72204e-006 -125.606 79.6538 126.639 22.1039 0.255849 -0.379035 -7.17404 15.0355 -33.2954 12.0552 -1.90735e-006 0 179.96 4.56888e-010 -9.42338e-006 -14.5684 -15.9069 4.79281 -170.554 38.3408 -109.771 17.4439 0 3.8147e-006 55.209 -46.3717 102.924 30.6251 1.90735e-006 1.90735e-006 -43.289 -1.35185e-005 -1.16603e-005 31.2039 3.8147e-006 -3.81469e-006 110.299 -86.2927 101.777 22.1039 0.25586 0.379039 -9.82705 -4.04688 32.1532 12.0552 -1.90735e-006 0 -3.89916e-008 9.64447e-006 -7.5638e-007 14.9375 -0.010376 -0.000137329 9.63414 0.543168 3.50118 14.3578 0.505471 -4.76625e-007 11.0464 1.62264 -1.53436 3.7699 -2.35626 12.3444 -170.615 23.5762 -87.749 3.76993 -2.35621 -12.3442 2.68037 23.7088 122.842 11.8396 10.8645 4.62793e-007 -177.002 -3.76325 178.789 9.73753 3.21677 -9.58063e-007 -2.85749 -1.77637e-005 9.27161e-006 5.17482 0.535263 -0.159799 -9.7303 3.88524e-007 1.50948e-007 6.93462 -0.751786 1.02564e-009 -84.9886 -4.01644 -0.639024 13.0965 7.6294e-006 -1.19209e-007 -8.24341 0.570102 -12.2686 25.6158 7.6294e-006 -4.76837e-007 2.19369e-007 -1.04682e-007 1.01989e-009 
-43.3411 73.3613 -0.761718 120.564 -86.7035 -146.6 0 0 0 -87.967 5.92168 -84.7869 -18.6385 -9.591 5.86437e-007 -48.2369 2.21638 -178.12 20.9743 -4.54747e-013 -0.000671029 19.4062 3.38407 -17.3545 20.3015 4.26326e-014 -9.53674e-007 16.0972 -2.80602 -18.8778 21.6394 -7.6294e-006 -9.53672e-007 6.34586 -10.6973 -41.4124 22.0444 1.63459 2.03497 7.79306 -1.29354 6.30629 -19.8302 1.80273 -21.4106 -94.7696 0.460808 -179.428 34.2647 -7.62939e-006 1.90735e-006 -45.457 7.38689e-006 7.50015e-006 20.4429 -7.62939e-006 5.72205e-006 67.3388 9.09709e-006 4.07897e-006 16.5673 -5.68434e-014 1.90735e-006 -19.0144 7.38013 -0.520098 9.18784 6.94841 -3.8257e-006 89.5774 1.50133 -0.0661845 1.01907 2.38418e-007 3.8147e-006 7.02976e-008 3.53293e-008 1.04913e-006 -23.5875 1.02909 12.5785 -110.072 20.8642 -172.54 34.2647 7.62939e-006 3.55271e-015 -53.8433 4.68389e-006 7.96372e-006 20.4429 5.68434e-014 -3.8147e-006 61.2457 1.37397e-005 -5.33585e-006 16.5673 1.90735e-006 3.8147e-006 -18.3042 -2.23623 0.365422 9.18784 6.9484 3.80422e-006 89.5168 -1.72894 0.074317 1.01907 1.4655e-014 7.10543e-015 179.96 -1.00505e-005 1.79438e-005 39.3331 -0.0246582 0.000216067 -7.9869 -0.0954878 -13.5843 34.2801 -15.593 -3.33931e-005 -13.2396 -0.877351 4.55348 -13.5632 -15.733 -7.53719 -163.14 -37.9886 121.616 17.4439 0 -3.8147e-006 36.0091 42.9388 -100.231 30.6251 -7.15256e-007 -3.81469e-006 -34.7052 8.31717e-006 6.2939e-006 31.2039 -8.8818e-014 5.72204e-006 -125.539 79.64 126.54 22.1039 0.255849 -0.379035 -7.17371 15.0356 -33.2981 12.0552 -1.90735e-006 0 179.96 4.55925e-010 -9.42337e-006 -14.5443 -15.9239 4.80945 -170.447 38.3627 -109.822 17.4439 -1.42109e-014 3.8147e-006 55.2392 -46.5103 102.988 30.6251 1.90735e-006 1.90735e-006 -43.0573 -1.30681e-005 -1.21375e-005 31.2039 3.8147e-006 -3.81469e-006 110.174 -86.2796 101.806 22.1039 0.25586 0.379039 -9.82693 -4.0457 32.1301 12.0552 -1.90735e-006 -7.10541e-015 -3.89916e-008 9.64447e-006 -7.5638e-007 14.9375 -0.010376 -0.000137329 9.72975 0.549017 3.50027 14.3578 0.505471 -4.76627e-007 11.0984 1.54081 -1.53078 3.7699 -2.35626 12.3444 -170.621 23.651 -87.7125 3.76993 -2.35621 -12.3442 2.69822 23.7641 122.782 11.8396 10.8645 4.62234e-007 -177.002 -3.76328 178.789 9.73753 3.21677 -9.58254e-007 -2.85749 -1.77632e-005 9.27144e-006 5.17482 0.535263 -0.159799 -9.7303 3.89687e-007 1.50296e-007 6.93462 -0.751786 1.07014e-009 -84.8297 -3.97547 -0.537472 13.0965 7.6294e-006 -1.19209e-007 -8.17037 0.534508 -11.7719 25.6158 7.6294e-006 -4.76837e-007 2.19369e-007 -1.04682e-007 1.01989e-009 
-43.3411 73.3613 -0.761718 120.497 -86.7063 -146.672 0 0 0 -87.9677 5.91864 -84.7767 -18.6385 -9.591 5.86455e-007 -48.0122 2.38031 -177.136 20.9743 -7.81597e-013 -0.000671029 19.7909 3.21258 -17.1499 20.3015 1.42109e-014 -9.53674e-007 16.28 -3.05182 -19.1808 21.6394 -7.6294e-006 -9.53672e-007 6.33506 -10.6048 -42.9209 22.0444 1.63459 2.03559 7.74304 -1.27277 6.2937 -19.8359 1.77623 -21.4083 -94.7176 0.44311 -179.445 34.2647 -7.62939e-006 1.90735e-006 -45.4608 7.38755e-006 7.5003e-006 20.4429 -7.62939e-006 5.72205e-006 67.3471 -1.47814e-007 2.20704e-007 16.5673 -3.55271e-014 1.90735e-006 -19.0215 7.38053 -0.520127 9.18784 6.94841 -3.8258e-006 89.5774 1.50133 -0.0661845 1.01907 2.38418e-007 3.8147e-006 7.02976e-008 3.53293e-008 1.04913e-006 -23.5856 1.01511 12.5819 -109.998 20.8665 -172.568 34.2647 7.62939e-006 0 -53.8317 4.68736e-006 7.96228e-006 20.4429 4.26326e-014 -3.8147e-006 61.2498 5.72359e-006 -9.7319e-006 16.5673 1.90735e-006 3.8147e-006 -18.3071 -2.23625 0.365308 9.18784 6.9484 3.80414e-006 89.5168 -1.72894 0.0743163 1.01907 1.77636e-014 7.10543e-015 179.96 -1.00505e-005 1.79438e-005 39.3331 -0.0246582 0.000216067 -7.89096 -0.0828004 -13.5791 34.2801 -15.593 -3.33931e-005 -13.3156 -0.856805 4.51551 -13.5472 -15.7544 -7.52074 -163.097 -37.9727 121.563 17.4439 0 -3.8147e-006 36.0513 42.985 -100.222 30.6251 -7.15256e-007 -3.81469e-006 -34.629 8.32596e-006 6.28137e-006 31.2039 -5.68435e-014 5.72204e-006 -125.522 79.6307 126.49 22.1039 0.255849 -0.379035 -7.17395 15.0354 -33.3127 12.0552 -1.90735e-006 -3.55271e-015 179.96 4.53769e-010 -9.42336e-006 -14.5206 -15.9405 4.82576 -170.342 38.3841 -109.873 17.4439 0 3.8147e-006 55.2692 -46.6462 103.05 30.6251 1.90735e-006 1.90735e-006 -42.8228 -1.31166e-005 -1.2084e-005 31.2039 3.8147e-006 -3.81469e-006 110.023 -86.2721 101.8 22.1039 0.25586 0.379039 -9.82649 -4.04597 32.1229 12.0552 -1.90735e-006 7.10541e-015 -3.89916e-008 9.64447e-006 -7.5638e-007 14.9375 -0.010376 -0.000137329 9.82694 0.554961 3.49933 14.3578 0.505471 -4.7663e-007 11.153 1.46702 -1.53134 3.7699 -2.35626 12.3444 -170.626 23.7243 -87.6767 3.76993 -2.35621 -12.3442 2.71581 23.8183 122.724 11.8396 10.8645 4.61785e-007 -177.002 -3.76332 178.789 9.73753 3.21677 -9.58403e-007 -2.85749 -1.77628e-005 9.27131e-006 5.17482 0.535263 -0.159799 -9.7303 3.90704e-007 1.49778e-007 6.93462 -0.751786 1.10504e-009 -84.6591 -3.93605 -0.405874 13.0965 7.6294e-006 -1.19209e-007 -8.09844 0.500217 -11.2849 25.6158 7.6294e-006 -4.76837e-007 2.19369e-007 -1.04682e-007 1.01989e-009 
